<svg width="16" height="16" viewBox="0 0 16 16" fill="none" xmlns="http://www.w3.org/2000/svg">
<path d="M13.3327 7.11104C13.3327 4.16552 10.9449 1.77771 7.99935 1.77771C5.05383 1.77771 2.66602 4.16552 2.66602 7.11104" stroke="#6953EF" stroke-linecap="round"/>
<path d="M6.22157 7.11115C6.22157 6.12931 5.42563 5.33337 4.44379 5.33337C3.46195 5.33337 2.66602 6.12931 2.66602 7.11115" stroke="#6953EF" stroke-linecap="round"/>
<path d="M9.77724 7.11115C9.77724 6.12931 8.9813 5.33337 7.99946 5.33337C7.01762 5.33337 6.22168 6.12931 6.22168 7.11115" stroke="#6953EF" stroke-linecap="round"/>
<path d="M13.3339 7.11115C13.3339 6.12931 12.5379 5.33337 11.5561 5.33337C10.5743 5.33337 9.77832 6.12931 9.77832 7.11115" stroke="#6953EF" stroke-linecap="round"/>
<rect x="6.27832" y="10.2777" width="3.44444" height="3.44444" rx="0.5" stroke="#6953EF"/>
<path d="M2.66602 7.11108L6.22157 10.2222H9.77713L13.3327 7.11108" stroke="#6953EF" stroke-linecap="round"/>
<path d="M6.22168 7.11108L7.55501 10.2222H8.4439L9.77724 7.11108" stroke="#6953EF" stroke-linecap="round"/>
</svg>
