<svg width="16" height="16" viewBox="0 0 16 16" fill="none" xmlns="http://www.w3.org/2000/svg">
<path d="M7.75065 2.05506C7.90535 1.96575 8.09595 1.96575 8.25065 2.05506L13.0242 4.81105C13.1789 4.90036 13.2742 5.06542 13.2742 5.24406V10.756C13.2742 10.9347 13.1789 11.0997 13.0242 11.189L8.25065 13.945C8.09595 14.0343 7.90535 14.0343 7.75065 13.945L2.97715 11.189C2.82245 11.0997 2.72715 10.9347 2.72715 10.756V5.24406C2.72715 5.06542 2.82245 4.90036 2.97715 4.81104L7.75065 2.05506Z" stroke="#6953EF"/>
<path d="M8 11.5556L8 8" stroke="#6953EF" stroke-linecap="round"/>
<path d="M11.1111 6.22222L8 8" stroke="#6953EF" stroke-linecap="round"/>
<path d="M4.88889 6.22222L8 8" stroke="#6953EF" stroke-linecap="round"/>
</svg>
