<svg width="16" height="16" viewBox="0 0 16 16" fill="none" xmlns="http://www.w3.org/2000/svg">
<path d="M11.8096 9.47433C11.8694 9.29006 12.1301 9.29006 12.19 9.47433L12.6534 10.9004C12.6801 10.9828 12.7569 11.0386 12.8436 11.0386H14.3431C14.5368 11.0386 14.6174 11.2866 14.4606 11.4004L13.2475 12.2818C13.1774 12.3328 13.1481 12.423 13.1749 12.5054L13.6382 13.9316C13.6981 14.1158 13.4872 14.269 13.3305 14.1552L12.1173 13.2738C12.0472 13.2228 11.9523 13.2228 11.8822 13.2738L10.6691 14.1552C10.5124 14.269 10.3015 14.1158 10.3613 13.9316L10.8247 12.5054C10.8515 12.423 10.8221 12.3328 10.752 12.2818L9.53892 11.4004C9.38218 11.2866 9.46273 11.0386 9.65648 11.0386H11.156C11.2426 11.0386 11.3194 10.9828 11.3462 10.9004L11.8096 9.47433Z" stroke="#6953EF"/>
<path d="M4 5.33337H11.5556" stroke="#6953EF" stroke-linecap="round"/>
<path d="M4 8H9.77778" stroke="#6953EF" stroke-linecap="round"/>
<path d="M4 10.6666H7.11111" stroke="#6953EF" stroke-linecap="round"/>
<path d="M14.6673 7.99993V2.77771C14.6673 2.22543 14.2196 1.77771 13.6673 1.77771H2.33398C1.7817 1.77771 1.33398 2.22542 1.33398 2.77771V13.2222C1.33398 13.7744 1.7817 14.2222 2.33398 14.2222H8.00065" stroke="#6953EF" stroke-linecap="round"/>
</svg>
